<svg version="1.1" xmlns="http://www.w3.org/2000/svg" viewBox="0 0 654 375.3333282470703" width="654" height="375.3333282470703">
  <!-- svg-source:excalidraw -->
  
  <defs>
    <style class="style-fonts">
      @font-face {
        font-family: "Virgil";
        src: url("https://excalidraw.com/Virgil.woff2");
      }
      @font-face {
        font-family: "Cascadia";
        src: url("https://excalidraw.com/Cascadia.woff2");
      }
    </style>
  </defs>
  <rect x="0" y="0" width="654" height="375.3333282470703" fill="#ffffff"></rect><g stroke-linecap="round" transform="translate(111.33331298828125 43.33332824707031) rotate(0 46.333343505859375 60.66667175292969)"><path d="M-1.94 0.28 C26.52 1.01, 49.66 -1.35, 90.92 1.38 M0.59 0.38 C24.91 1.22, 51.36 0.33, 91.7 0.17 M92.24 0 C93.21 33.97, 90.19 67.34, 92.96 119.82 M92.81 -1 C92.41 41.9, 92.55 81.12, 92.31 122.26 M93.96 119.78 C70.57 118.83, 51.67 121.68, 0.88 122.25 M93.29 121.09 C66.63 121.14, 41.51 122.82, 0.66 121.69 M-1.04 120.64 C0.29 88.66, 0.67 53.4, 0.12 1.99 M0.55 122.22 C-0.25 85.82, 0.05 49.77, -0.57 0.89" stroke="#000000" stroke-width="1" fill="none"></path></g><g stroke-linecap="round" transform="translate(10 10) rotate(0 317 177.66666412353516)"><path d="M0.55 0.23 C248.53 0.6, 495.56 0.68, 634.39 -0.43 M-0.01 0.39 C183.49 0.92, 367.67 0.52, 634.15 -0.38 M634.14 -1.23 C634.33 121.92, 634.63 243.69, 634.57 355.76 M634.21 0.45 C633.94 88.68, 633.97 178.1, 634.22 355.11 M634.11 356.09 C456.23 353.04, 277.22 352.17, 0.55 355.11 M634.15 355.22 C428.39 357.22, 222.05 356.43, 0.07 355.26 M0 356.08 C-1.56 265.83, -2.1 178.89, -0.97 0.48 M-0.64 355.88 C0.62 281.62, -0.47 206.42, 0.6 -0.51" stroke="#000000" stroke-width="1" fill="none"></path></g><g stroke-linecap="round" transform="translate(280 156.00001525878906) rotate(0 45.666656494140625 64)"><path d="M1.86 -1.58 C37.6 -0.88, 74.15 -1.23, 89.71 -1.95 M0.46 -0.27 C26.43 0.26, 54.85 -0.65, 90.58 -0.81 M92.05 -0.41 C94.27 32.95, 91.41 61.31, 92.73 129.22 M92.33 -0.09 C91.77 49.59, 91.79 100.41, 91.73 127.83 M93.12 127.71 C59.49 128.61, 25.48 126.38, -0.53 127.45 M91.16 127.73 C59.83 128.16, 27.86 127.11, 0.06 127.9 M-0.67 127.99 C1.01 94.94, 1.13 61.22, -0.77 -0.46 M0.22 128.69 C-1.09 86.49, -0.45 45.96, 0.35 -0.91" stroke="#000000" stroke-width="1" fill="none"></path></g><g transform="translate(121.66665649414062 91.5) rotate(0 36 12.5)"><text x="36" y="17" font-family="Virgil, Segoe UI Emoji" font-size="20px" fill="#000000" text-anchor="middle" style="white-space: pre;" direction="ltr">Master</text></g><g stroke-linecap="round" transform="translate(456 154.00001525878906) rotate(0 37 65)"><path d="M-0.34 1.1 C31.34 0.39, 58.81 1, 72.25 -1.14 M0.57 0.85 C28.27 -0.98, 57.37 -0.2, 73.9 -0.24 M74.75 1.57 C72.3 36.81, 73.45 72.46, 72.23 129.23 M73.71 0 C73.08 34.27, 73.77 69.54, 74.73 130.98 M73.73 130.96 C51.56 130.59, 24.5 131.83, 1.18 128.36 M74.25 130.87 C47.59 130.11, 22.98 129.87, -0.94 129.84 M1.08 128.21 C-2.61 93.09, -1.73 58.19, -0.02 0.83 M0.34 130.09 C-1.27 93.73, -0.71 57.14, -0.13 -0.85" stroke="#000000" stroke-width="1" fill="none"></path></g><g stroke-linecap="round"><g transform="translate(206.66665649414062 134.56627056513827) rotate(0 33.98674855452495 12.568407015393234)"><path d="M1.1 0.35 C12.31 4.43, 56.7 19.97, 67.76 24.05 M0.21 -0.51 C11.2 3.82, 55.66 21.75, 66.69 25.65" stroke="#000000" stroke-width="1" fill="none"></path></g><g transform="translate(206.66665649414062 134.56627056513827) rotate(0 33.98674855452495 12.568407015393234)"><path d="M37.27 24.77 C47.14 24.13, 58.62 25, 65.63 25.53 M36.75 24.19 C44.62 24.82, 51.65 25.22, 66.25 24.99" stroke="#000000" stroke-width="1" fill="none"></path></g><g transform="translate(206.66665649414062 134.56627056513827) rotate(0 33.98674855452495 12.568407015393234)"><path d="M44.6 5.6 C51.9 11.57, 60.88 18.99, 65.63 25.53 M44.07 5.02 C50.23 10.11, 55.54 15.03, 66.25 24.99" stroke="#000000" stroke-width="1" fill="none"></path></g></g><g stroke-linecap="round"><g transform="translate(205 126.32322006286805) rotate(0 126.55419739314354 15.866176458952324)"><path d="M0.72 0.82 C42.76 6, 209.3 25.35, 251.07 30.34 M-0.36 0.21 C42.18 5.59, 211.68 26.23, 253.47 31.53" stroke="#000000" stroke-width="1" fill="none"></path></g><g transform="translate(205 126.32322006286805) rotate(0 126.55419739314354 15.866176458952324)"><path d="M225.6 37.25 C229.11 36.11, 235.79 36.3, 252.65 32.35 M224.87 37.28 C234.62 36.76, 242.94 33.85, 253.19 32.44" stroke="#000000" stroke-width="1" fill="none"></path></g><g transform="translate(205 126.32322006286805) rotate(0 126.55419739314354 15.866176458952324)"><path d="M228.12 16.88 C231 19.91, 237.16 24.24, 252.65 32.35 M227.4 16.91 C236.18 23.11, 243.67 26.94, 253.19 32.44" stroke="#000000" stroke-width="1" fill="none"></path></g></g><g transform="translate(300.6666564941406 207.50001525878906) rotate(0 25 12.5)"><text x="25" y="17" font-family="Virgil, Segoe UI Emoji" font-size="20px" fill="#000000" text-anchor="middle" style="white-space: pre;" direction="ltr">node1</text></g><g transform="translate(463.5 206.50001525878906) rotate(0 29.5 12.5)"><text x="29.5" y="17" font-family="Virgil, Segoe UI Emoji" font-size="20px" fill="#000000" text-anchor="middle" style="white-space: pre;" direction="ltr">node2</text></g><g transform="translate(524.6666259765625 14.000015258789062) rotate(0 54.5 17.5)"><text x="0" y="25" font-family="Virgil, Segoe UI Emoji" font-size="28px" fill="#000000" text-anchor="start" style="white-space: pre;" direction="ltr">Vagrant</text></g><g transform="translate(90.6666259765625 173.8333282470703) rotate(0 56.5 20)"><text x="0" y="14" font-family="Virgil, Segoe UI Emoji" font-size="16px" fill="#000000" text-anchor="start" style="white-space: pre;" direction="ltr">VM: </text><text x="0" y="34" font-family="Virgil, Segoe UI Emoji" font-size="16px" fill="#000000" text-anchor="start" style="white-space: pre;" direction="ltr">ip:192.168.65.4</text></g><g transform="translate(269.9999694824219 287.1667022705078) rotate(0 58.5 20)"><text x="0" y="14" font-family="Virgil, Segoe UI Emoji" font-size="16px" fill="#000000" text-anchor="start" style="white-space: pre;" direction="ltr">vm </text><text x="0" y="34" font-family="Virgil, Segoe UI Emoji" font-size="16px" fill="#000000" text-anchor="start" style="white-space: pre;" direction="ltr">ip:192.168.56.15</text></g><g transform="translate(42.66668701171875 28.999984741210938) rotate(0 24 12.5)"><text x="0" y="18" font-family="Virgil, Segoe UI Emoji" font-size="20px" fill="#000000" text-anchor="start" style="white-space: pre;" direction="ltr">head</text></g><g transform="translate(445.9998779296875 286.50001525878906) rotate(0 62.5 20)"><text x="0" y="14" font-family="Virgil, Segoe UI Emoji" font-size="16px" fill="#000000" text-anchor="start" style="white-space: pre;" direction="ltr">vm </text><text x="0" y="34" font-family="Virgil, Segoe UI Emoji" font-size="16px" fill="#000000" text-anchor="start" style="white-space: pre;" direction="ltr">ip: 192.168.56.16</text></g><g transform="translate(38 57.66673278808594) rotate(0 26 43.5)"><text x="0" y="11.399999999999999" font-family="Virgil, Segoe UI Emoji" font-size="13.419354838709655px" fill="#000000" text-anchor="start" style="white-space: pre;" direction="ltr">mbsched</text><text x="0" y="28.799999999999997" font-family="Virgil, Segoe UI Emoji" font-size="13.419354838709655px" fill="#000000" text-anchor="start" style="white-space: pre;" direction="ltr">mbsched</text><text x="0" y="46.199999999999996" font-family="Virgil, Segoe UI Emoji" font-size="13.419354838709655px" fill="#000000" text-anchor="start" style="white-space: pre;" direction="ltr">lim</text><text x="0" y="63.599999999999994" font-family="Virgil, Segoe UI Emoji" font-size="13.419354838709655px" fill="#000000" text-anchor="start" style="white-space: pre;" direction="ltr">res</text><text x="0" y="81" font-family="Virgil, Segoe UI Emoji" font-size="13.419354838709655px" fill="#000000" text-anchor="start" style="white-space: pre;" direction="ltr">pim</text></g><g transform="translate(544 121.66667175292969) rotate(0 35.5 60)"><text x="0" y="14" font-family="Virgil, Segoe UI Emoji" font-size="16px" fill="#000000" text-anchor="start" style="white-space: pre;" direction="ltr">Nodes</text><text x="0" y="34" font-family="Virgil, Segoe UI Emoji" font-size="16px" fill="#000000" text-anchor="start" style="white-space: pre;" direction="ltr">lim</text><text x="0" y="54" font-family="Virgil, Segoe UI Emoji" font-size="16px" fill="#000000" text-anchor="start" style="white-space: pre;" direction="ltr">res</text><text x="0" y="74" font-family="Virgil, Segoe UI Emoji" font-size="16px" fill="#000000" text-anchor="start" style="white-space: pre;" direction="ltr">pim</text><text x="0" y="94" font-family="Virgil, Segoe UI Emoji" font-size="16px" fill="#000000" text-anchor="start" style="white-space: pre;" direction="ltr">sbatched</text><text x="0" y="114" font-family="Virgil, Segoe UI Emoji" font-size="16px" fill="#000000" text-anchor="start" style="white-space: pre;" direction="ltr"></text></g></svg>